<svg width="16" height="16" viewBox="0 0 16 16" fill="none" xmlns="http://www.w3.org/2000/svg">
<path d="M7.44229 0.654709C7.50875 -0.0191689 8.49125 -0.0191689 8.55771 0.654709C8.6148 1.23355 9.40696 1.35295 9.63213 0.816652C9.89427 0.192303 10.8331 0.481896 10.698 1.14543C10.5819 1.71538 11.3037 2.06297 11.677 1.61687C12.1115 1.09752 12.9232 1.65098 12.5985 2.2452C12.3196 2.75562 12.9069 3.30052 13.3951 2.98425C13.9634 2.61606 14.5759 3.3842 14.0905 3.85632C13.6735 4.26186 14.0741 4.95564 14.6338 4.79731C15.2854 4.61298 15.6443 5.52756 15.0413 5.83562C14.5233 6.10024 14.7016 6.88126 15.2831 6.89494C15.96 6.91086 16.0335 7.8906 15.3664 8.00723C14.7935 8.10742 14.7336 8.90629 15.2852 9.09076C15.9274 9.3055 15.7088 10.2634 15.037 10.1782C14.46 10.1051 14.1673 10.8508 14.6401 11.1897C15.1904 11.5842 14.6992 12.435 14.0824 12.1556C13.5525 11.9157 13.053 12.542 13.4049 13.0051C13.8145 13.5443 13.0943 14.2126 12.5872 13.7638C12.1517 13.3783 11.4898 13.8296 11.6895 14.3759C11.922 15.0119 11.0368 15.4382 10.6845 14.8599C10.3819 14.3631 9.61642 14.5992 9.64624 15.1801C9.68095 15.8564 8.70944 16.0028 8.54328 15.3464C8.40056 14.7825 7.59944 14.7825 7.45672 15.3464C7.29056 16.0028 6.31905 15.8564 6.35376 15.1801C6.38358 14.5992 5.61806 14.3631 5.31548 14.8599C4.96321 15.4382 4.07802 15.0119 4.31052 14.3759C4.51023 13.8296 3.84832 13.3783 3.41276 13.7638C2.90569 14.2126 2.18547 13.5443 2.5951 13.0051C2.94697 12.542 2.44748 11.9157 1.91764 12.1556C1.30082 12.435 0.809573 11.5842 1.35994 11.1897C1.83268 10.8508 1.54 10.1051 0.962972 10.1782C0.2912 10.2634 0.072576 9.3055 0.714769 9.09076C1.26639 8.90629 1.20653 8.10742 0.633571 8.00723C-0.0334563 7.8906 0.0399652 6.91086 0.716926 6.89494C1.29842 6.88126 1.47668 6.10024 0.958707 5.83562C0.355694 5.52756 0.714637 4.61298 1.36621 4.79731C1.9259 4.95564 2.32646 4.26186 1.90949 3.85632C1.42407 3.3842 2.03665 2.61606 2.60495 2.98425C3.0931 3.30052 3.68035 2.75562 3.40145 2.2452C3.07676 1.65098 3.88853 1.09752 4.32305 1.61687C4.69629 2.06297 5.41807 1.71538 5.30201 1.14543C5.16689 0.481897 6.10573 0.192303 6.36787 0.816653C6.59304 1.35295 7.3852 1.23355 7.44229 0.654709Z" fill="#0083DE"/>
</svg>
